PathFileType	4	(X/Y/Z)	/Users/itak/Documents/Research/Walk-IL/dataset/trc/00429_00167.trc
DataRate	CameraRate	NumFrames	NumMarkers	Units	OrigDataRate	OrigDataStartFrame	OrigNumFrames
100.000000	100.000000	4	53	mm	100.000000	336	673
Frame#	Time	RPSI			LPSI			L3			STRN			T10			C7			CLAV			RBAK			LBAK			LSHO			LUPA			LAEL			LAOL			LWTS			LWPS			LFRA			LIFD			LHPS			LHTS			RSHO			RUPA			RAEL			RAOL			RWTS			RWPS			RFRA			RIFD			RHTS			RHPS			RBHD			LFHD			RFHD			LBHD			LHIP			RHIP			RASI			LASI			LKNE			LTHI			LANK			LTIP			LTOE			LMT1			LMT5			LHEE			RKNE			RTHI			RANK			RTIP			RTOE			RMT1			RMT5			RHEE			
		X1	Y1	Z1	X2	Y2	Z2	X3	Y3	Z3	X4	Y4	Z4	X5	Y5	Z5	X6	Y6	Z6	X7	Y7	Z7	X8	Y8	Z8	X9	Y9	Z9	X10	Y10	Z10	X11	Y11	Z11	X12	Y12	Z12	X13	Y13	Z13	X14	Y14	Z14	X15	Y15	Z15	X16	Y16	Z16	X17	Y17	Z17	X18	Y18	Z18	X19	Y19	Z19	X20	Y20	Z20	X21	Y21	Z21	X22	Y22	Z22	X23	Y23	Z23	X24	Y24	Z24	X25	Y25	Z25	X26	Y26	Z26	X27	Y27	Z27	X28	Y28	Z28	X29	Y29	Z29	X30	Y30	Z30	X31	Y31	Z31	X32	Y32	Z32	X33	Y33	Z33	X34	Y34	Z34	X35	Y35	Z35	X36	Y36	Z36	X37	Y37	Z37	X38	Y38	Z38	X39	Y39	Z39	X40	Y40	Z40	X41	Y41	Z41	X42	Y42	Z42	X43	Y43	Z43	X44	Y44	Z44	X45	Y45	Z45	X46	Y46	Z46	X47	Y47	Z47	X48	Y48	Z48	X49	Y49	Z49	X50	Y50	Z50	X51	Y51	Z51	X52	Y52	Z52	X53	Y53	Z53	

337	3.36	-97.51603698730469	957.767333984375	197.5287170410156	-4.551082611083984	958.3668212890625	88.25861358642578	-50.25370788574219	1056.812133789062	163.93359375	170.1966857910156	1246.373657226562	316.2661743164062	-64.21373748779297	1180.452514648438	148.9443511962891	-14.68343734741211	1448.354614257812	194.2635498046875	144.0556488037109	1360.150756835938	290.4728088378906	-122.0655822753906	1330.838500976562	239.11474609375	17.92393112182617	1398.860717773438	93.91558074951172	146.5843811035156	1415.594604492188	92.86700439453125	209.8213348388672	1302.228759765625	11.94109916687012	289.3110961914062	1102.279907226562	8.404541015625	194.294921875	1060.079223632812	11.70171737670898	383.2568054199219	943.38623046875	126.6246795654297	387.3886413574219	912.6737060546875	59.49520492553711	335.78662109375	1027.567138671875	28.19523429870605	448.6813354492188	791.9195556640625	161.3079681396484	420.9466857910156	842.5083618164062	80.96559906005859	432.4742736816406	869.5940551757812	145.1306762695312	-45.6513786315918	1420.840698242188	367.8516540527344	-102.5954742431641	1362.7724609375	424.2739868164062	-131.052734375	1083.755004882812	496.2046203613281	-152.6947479248047	1052.931762695312	438.3072204589844	25.32135581970215	925.3463745117188	543.8997192382812	-54.09338760375977	889.5560913085938	562.2025756835938	-119.8083267211914	1028.976196289062	515.8506469726562	66.77292633056641	778.4807739257812	589.43994140625	58.23583602905273	838.8428955078125	585.1304321289062	-14.22295093536377	815.2152709960938	588.8143310546875	16.98151206970215	1648.551147460938	302.7107543945312	212.9322052001953	1654.002319335938	235.8905334472656	146.4777526855469	1663.904541015625	348.4972839355469	93.83851623535156	1640.093627929688	141.3577728271484	178.4510192871094	850.9602661132812	94.23634338378906	-99.27828216552734	854.6329956054688	383.6200866699219	20.15509796142578	894.2574462890625	397.2911987304688	196.8701629638672	895.2315063476562	214.1315765380859	191.1017761230469	431.5252990722656	199.3091888427734	212.2242126464844	584.8397216796875	169.7623138427734	103.9962158203125	30.2877254486084	165.3002777099609	179.1665954589844	272.6400146484375	194.7289276123047	211.6996765136719	38.69340133666992	372.3634948730469	142.4770050048828	44.34649276733398	338.4919128417969	223.31689453125	41.74077224731445	257.6748046875	31.87660980224609	34.79048156738281	161.1818389892578	-65.46915435791016	474.3222045898438	427.6335754394531	-67.09381103515625	724.6930541992188	432.0433654785156	-321.8383483886719	227.7529449462891	182.19775390625	-152.4399566650391	372.7961730957031	366.5425415039062	-196.2816772460938	57.31771087646484	209.5511932373047	-200.6049957275391	113.6155319213867	164.5032806396484	-282.5027465820312	111.9303588867188	231.0601196289062	-320.2249145507812	286.5315856933594	127.2329635620117	
338	3.37	-92.73915863037109	957.8147583007812	201.4948425292969	-0.6344308257102966	958.3312377929688	91.50665283203125	-45.50870895385742	1057.21435546875	166.8510284423828	175.2522735595703	1247.0029296875	318.6661071777344	-59.07378005981445	1180.848999023438	151.5513610839844	-9.655083656311035	1448.822021484375	196.7052307128906	148.9241180419922	1360.810302734375	293.1368408203125	-116.9907531738281	1331.183959960938	241.4102478027344	23.18188285827637	1399.43896484375	96.30994415283203	151.7556610107422	1416.418212890625	95.7191162109375	216.3284301757812	1303.540649414062	15.46663379669189	298.3610534667969	1104.754638671875	13.39159679412842	203.9554901123047	1061.224609375	16.28071212768555	394.0508728027344	947.8407592773438	132.709716796875	398.889404296875	916.8565673828125	65.77156066894531	345.8013305664062	1030.824340820312	33.73263931274414	461.6966857910156	797.5834350585938	168.2949066162109	433.4738464355469	847.3604736328125	87.64873504638672	444.3721313476562	874.947265625	151.7247619628906	-40.9343376159668	1421.346801757812	370.175537109375	-97.93211364746094	1363.248657226562	426.4826965332031	-125.8528747558594	1084.585327148438	499.13916015625	-146.9219512939453	1052.912841796875	441.4028930664062	33.29434967041016	929.6961669921875	548.4786987304688	-45.37275695800781	892.6113891601562	567.0653686523438	-113.6661224365234	1030.210327148438	519.247314453125	77.75936889648438	784.3712158203125	596.0642700195312	67.89971923828125	844.4929809570312	590.9793701171875	-4.095699310302734	819.4725341796875	594.8374633789062	22.19911766052246	1649.118408203125	305.6635131835938	218.166259765625	1654.285766601562	238.9514312744141	151.7257080078125	1664.168701171875	351.5162658691406	99.06509399414062	1640.74755859375	144.3355102539062	182.1143798828125	850.7005615234375	95.94060516357422	-92.62070465087891	855.6553344726562	388.722412109375	26.89412689208984	895.491455078125	399.9388427734375	202.2148590087891	895.465576171875	215.4960479736328	193.2665100097656	431.1054077148438	199.9392700195312	215.012939453125	584.4623413085938	170.6391143798828	104.0821151733398	30.44357109069824	165.4974365234375	180.4553680419922	272.2931823730469	195.1425170898438	211.9937591552734	38.5291862487793	372.4909057617188	142.6701812744141	44.42897033691406	338.5495300292969	223.6038513183594	41.50820922851562	257.6032409667969	31.83759117126465	35.05747222900391	161.4207916259766	-52.73497009277344	475.8095092773438	436.240478515625	-58.20032501220703	726.2750244140625	437.9076843261719	-307.0352172851562	226.2301025390625	191.6578216552734	-138.895263671875	373.607177734375	375.2754516601562	-177.8854064941406	58.80608367919922	221.4048767089844	-183.4151458740234	114.4244918823242	175.4150848388672	-265.1963806152344	112.1094818115234	242.1300048828125	-306.7371826171875	284.5357971191406	136.0670623779297	
339	3.38	-88.03668975830078	957.8199462890625	205.41650390625	3.233147621154785	958.28857421875	94.75550842285156	-40.84516525268555	1057.554321289062	169.7556915283203	180.2679901123047	1247.55810546875	321.0005798339844	-54.01457977294922	1181.171020507812	154.1726837158203	-4.719596385955811	1449.23779296875	199.1405944824219	153.7547302246094	1361.39990234375	295.7501831054688	-111.9717178344727	1331.462036132812	243.7199096679688	28.30469512939453	1399.95263671875	98.69363403320312	156.7919616699219	1417.206665039062	98.51466369628906	222.6452484130859	1304.823120117188	18.90988731384277	307.1254577636719	1107.16845703125	18.33737564086914	213.3137359619141	1062.416748046875	20.80545806884766	404.3261108398438	952.0559692382812	138.6920013427734	409.8676147460938	920.86376953125	71.92256927490234	355.4456481933594	1033.972412109375	39.20422744750977	473.9254150390625	802.8980102539062	175.0823822021484	445.3580017089844	851.9813232421875	94.16686248779297	455.63232421875	879.9750366210938	158.2052917480469	-36.23817443847656	1421.787841796875	372.5069885253906	-93.28971099853516	1363.677001953125	428.7059631347656	-120.7808227539062	1085.380615234375	502.0349731445312	-141.3614807128906	1052.909545898438	444.4845581054688	40.97745895385742	933.8128662109375	552.7557373046875	-36.96516036987305	895.5703735351562	571.74267578125	-107.6907272338867	1031.413452148438	522.5737915039062	88.21897888183594	789.9528198242188	602.0608520507812	77.13530731201172	849.8158569335938	596.3163452148438	5.624979496002197	823.5499267578125	600.4691772460938	27.29410552978516	1649.608154296875	308.6220703125	223.2756958007812	1654.543823242188	242.0252532958984	156.8445281982422	1664.374267578125	354.5480346679688	104.1901550292969	1641.391235351562	147.3140869140625	185.6787261962891	850.4240112304688	97.6395263671875	-86.04531860351562	856.615478515625	393.6955871582031	33.50706100463867	896.652099609375	402.5884399414062	207.4157257080078	895.6229858398438	216.880615234375	195.4136810302734	430.7129211425781	200.5496978759766	217.7369995117188	584.109619140625	171.5014953613281	104.1852340698242	30.59914398193359	165.6736755371094	181.7352447509766	271.9788818359375	195.5193328857422	212.2983703613281	38.37575149536133	372.6220397949219	142.8709716796875	44.52376556396484	338.6094360351562	223.9008178710938	41.24588394165039	257.5218811035156	31.79457664489746	35.3099479675293	161.6843109130859	-40.08993148803711	477.3024291992188	444.6260681152344	-49.43030166625977	727.8472900390625	443.6572875976562	-292.0864562988281	224.0386047363281	201.3731689453125	-125.3338851928711	374.1677551269531	384.0009155273438	-159.2080535888672	59.98403549194336	233.8667144775391	-165.9384613037109	114.7909927368164	186.7665557861328	-247.6696166992188	111.8564453125	253.6256408691406	-293.1829833984375	281.7518920898438	145.0677032470703	
340	3.39	-83.40719604492188	957.7750854492188	209.2869567871094	7.062394142150879	958.2550659179688	98.00379180908203	-36.24330902099609	1057.833618164062	172.6391906738281	185.2417144775391	1248.034423828125	323.2816772460938	-49.02628707885742	1181.4267578125	156.8023376464844	0.1321149319410324	1449.6044921875	201.5724334716797	158.5531005859375	1361.9140625	298.3166198730469	-107.0049896240234	1331.677612304688	246.0465545654297	33.30830001831055	1400.4052734375	101.0647048950195	161.7051544189453	1417.9521484375	101.2598190307617	228.7734832763672	1306.0625	22.26743125915527	315.5968322753906	1109.499267578125	23.21524238586426	222.3600463867188	1063.629516601562	25.25192070007324	414.0851135253906	956.0166625976562	144.5622406005859	420.3192749023438	924.6695556640625	77.94533538818359	364.7098999023438	1036.984985351562	44.59023284912109	485.3721313476562	807.8467407226562	181.6908264160156	456.600830078125	856.3410034179688	100.5314331054688	466.2567138671875	884.6610717773438	164.5695190429688	-31.55424308776855	1422.160888671875	374.8515625	-88.66039276123047	1364.053588867188	430.9524841308594	-115.8192443847656	1086.133056640625	504.902587890625	-136.0011291503906	1052.920654296875	447.5591430664062	48.38019943237305	937.6615600585938	556.7405395507812	-28.88607025146484	898.3882446289062	576.224609375	-101.8800735473633	1032.567749023438	525.836669921875	98.15263366699219	795.1694946289062	607.4603881835938	85.95597839355469	854.7656860351562	601.1613159179688	14.93246269226074	827.3961181640625	605.7086791992188	32.26957321166992	1650.017700195312	311.5827026367188	228.2644958496094	1654.78466796875	245.1049194335938	161.8371734619141	1664.526611328125	357.5850830078125	109.2201156616211	1642.021606445312	150.2862548828125	189.1519622802734	850.1522827148438	99.35823822021484	-79.52841186523438	857.4839477539062	398.5001525878906	39.98898315429688	897.7352905273438	405.2589416503906	212.45654296875	895.7052612304688	218.2969970703125	197.5205078125	430.3478088378906	201.1303558349609	220.3849792480469	583.7796020507812	172.3381805419922	104.2958450317383	30.75809860229492	165.8269195556641	182.98681640625	271.6974182128906	195.8615112304688	212.6011810302734	38.23667526245117	372.750732421875	143.072021484375	44.62538528442383	338.6712341308594	224.1904907226562	40.96648406982422	257.4371032714844	31.73895645141602	35.53383636474609	161.9783172607422	-27.56704902648926	478.7956848144531	452.7746276855469	-40.78509140014648	729.391357421875	449.2829284667969	-277.002685546875	221.2030639648438	211.3674621582031	-111.7782287597656	374.4847106933594	392.701171875	-140.3107147216797	60.85135650634766	246.9450836181641	-148.2270812988281	114.6953277587891	198.5857543945312	-229.9576721191406	111.1996841430664	265.5709838867188	-279.5424194335938	278.16455078125	154.2319946289062	
